<svg xmlns="http://www.w3.org/2000/svg" viewBox="-0.5 -0.5 24 24" fill="none" stroke="#000000" stroke-linecap="round" stroke-linejoin="round" id="File-Image--Streamline-Lucide" height="24" width="24">
  <desc>
    File Image Streamline Icon: https://streamlinehq.com
  </desc>
  <path d="M14.375 1.9166666666666667H5.75a1.9166666666666667 1.9166666666666667 0 0 0 -1.9166666666666667 1.9166666666666667v15.333333333333334a1.9166666666666667 1.9166666666666667 0 0 0 1.9166666666666667 1.9166666666666667h11.5a1.9166666666666667 1.9166666666666667 0 0 0 1.9166666666666667 -1.9166666666666667V6.708333333333334Z" stroke-width="1"></path>
  <path d="M13.416666666666668 1.9166666666666667v3.8333333333333335a1.9166666666666667 1.9166666666666667 0 0 0 1.9166666666666667 1.9166666666666667h3.8333333333333335" stroke-width="1"></path>
  <path d="M7.666666666666667 11.5a1.9166666666666667 1.9166666666666667 0 1 0 3.8333333333333335 0 1.9166666666666667 1.9166666666666667 0 1 0 -3.8333333333333335 0" stroke-width="1"></path>
  <path d="m19.166666666666668 16.291666666666668 -1.242 -1.242a2.3095833333333338 2.3095833333333338 0 0 0 -3.266 0L8.625 21.083333333333336" stroke-width="1"></path>
</svg>