<svg xmlns="http://www.w3.org/2000/svg" viewBox="-0.5 -0.5 24 24" fill="none" stroke="#000000" stroke-linecap="round" stroke-linejoin="round" id="File-Cog--Streamline-Lucide" height="24" width="24">
  <desc>
    File Cog Streamline Icon: https://streamlinehq.com
  </desc>
  <path d="M3.8333333333333335 21.083333333333336h13.416666666666668a1.9166666666666667 1.9166666666666667 0 0 0 1.9166666666666667 -1.9166666666666667V6.708333333333334l-4.791666666666667 -4.791666666666667H5.75a1.9166666666666667 1.9166666666666667 0 0 0 -1.9166666666666667 1.9166666666666667v1.9166666666666667" stroke-width="1"></path>
  <path d="M13.416666666666668 1.9166666666666667v3.8333333333333335a1.9166666666666667 1.9166666666666667 0 0 0 1.9166666666666667 1.9166666666666667h3.8333333333333335" stroke-width="1"></path>
  <path d="M2.875 13.416666666666668a2.875 2.875 0 1 0 5.75 0 2.875 2.875 0 1 0 -5.75 0" stroke-width="1"></path>
  <path d="M5.75 9.583333333333334v0.9583333333333334" stroke-width="1"></path>
  <path d="M5.75 16.291666666666668v0.9583333333333334" stroke-width="1"></path>
  <path d="M9.583333333333334 13.416666666666668H8.625" stroke-width="1"></path>
  <path d="M2.875 13.416666666666668H1.9166666666666667" stroke-width="1"></path>
  <path d="m8.625 10.541666666666668 -0.8433333333333334 0.8433333333333334" stroke-width="1"></path>
  <path d="M3.7183333333333333 15.448333333333334 2.875 16.291666666666668" stroke-width="1"></path>
  <path d="m8.625 16.291666666666668 -0.8433333333333334 -0.8433333333333334" stroke-width="1"></path>
  <path d="M3.7183333333333333 11.385000000000002 2.875 10.541666666666668" stroke-width="1"></path>
</svg>