<svg xmlns="http://www.w3.org/2000/svg" viewBox="-0.5 -0.5 24 24" fill="none" stroke="#000000" stroke-linecap="round" stroke-linejoin="round" id="File-Volume--Streamline-Lucide" height="24" width="24">
  <desc>
    File Volume Streamline Icon: https://streamlinehq.com
  </desc>
  <path d="M10.541666666666668 10.541666666666668a4.791666666666667 4.791666666666667 0 0 1 0 5.75" stroke-width="1"></path>
  <path d="M13.416666666666668 1.9166666666666667v3.8333333333333335a1.9166666666666667 1.9166666666666667 0 0 0 1.9166666666666667 1.9166666666666667h3.8333333333333335" stroke-width="1"></path>
  <path d="M4.090166666666667 20.125A1.9166666666666667 1.9166666666666667 0 0 0 5.75 21.083333333333336h11.5a1.9166666666666667 1.9166666666666667 0 0 0 1.9166666666666667 -1.9166666666666667V6.708333333333334l-4.791666666666667 -4.791666666666667H5.75a1.9166666666666667 1.9166666666666667 0 0 0 -1.9166666666666667 1.9166666666666667v2.875" stroke-width="1"></path>
  <path d="m6.708333333333334 9.583333333333334 -2.875 1.9166666666666667H1.9166666666666667v3.8333333333333335h1.9166666666666667l2.875 1.9166666666666667z" stroke-width="1"></path>
</svg>