<svg xmlns="http://www.w3.org/2000/svg" viewBox="-0.5 -0.5 24 24" fill="none" stroke="#000000" stroke-linecap="round" stroke-linejoin="round" id="File-Box--Streamline-Lucide" height="24" width="24">
  <desc>
    File Box Streamline Icon: https://streamlinehq.com
  </desc>
  <path d="M13.895833333333334 21.083333333333336H17.25a1.9166666666666667 1.9166666666666667 0 0 0 1.9166666666666667 -1.9166666666666667V6.708333333333334l-4.791666666666667 -4.791666666666667H5.75a1.9166666666666667 1.9166666666666667 0 0 0 -1.9166666666666667 1.9166666666666667v3.8333333333333335" stroke-width="1"></path>
  <path d="M13.416666666666668 1.9166666666666667v3.8333333333333335a1.9166666666666667 1.9166666666666667 0 0 0 1.9166666666666667 1.9166666666666667h3.8333333333333335" stroke-width="1"></path>
  <path d="M2.875 12.554166666666667a1.9166666666666667 1.9166666666666667 0 0 0 -0.9583333333333334 1.6866666666666668v3.1050000000000004a1.9166666666666667 1.9166666666666667 0 0 0 0.9295833333333333 1.7058333333333335L5.75 20.795833333333334a1.9166666666666667 1.9166666666666667 0 0 0 1.9454166666666666 0.009583333333333334L10.541666666666668 19.070833333333333a1.9166666666666667 1.9166666666666667 0 0 0 0.9583333333333334 -1.6866666666666668V14.279166666666667a1.9166666666666667 1.9166666666666667 0 0 0 -0.9295833333333333 -1.7058333333333335L7.666666666666667 10.829166666666667a1.9166666666666667 1.9166666666666667 0 0 0 -1.9454166666666666 -0.009583333333333334Z" stroke-width="1"></path>
  <path d="M6.708333333333334 16.291666666666668v4.791666666666667" stroke-width="1"></path>
  <path d="M11.2125 13.608333333333333 6.708333333333334 16.291666666666668l-4.504166666666667 -2.683333333333333" stroke-width="1"></path>
</svg>