<svg xmlns="http://www.w3.org/2000/svg" viewBox="-0.5 -0.5 24 24" fill="none" stroke="#000000" stroke-linecap="round" stroke-linejoin="round" id="Folder-Open--Streamline-Lucide" height="24" width="24">
  <desc>
    Folder Open Streamline Icon: https://streamlinehq.com
  </desc>
  <path d="m5.75 13.416666666666668 1.4375 -2.779166666666667A1.9166666666666667 1.9166666666666667 0 0 1 8.855 9.583333333333334H19.166666666666668a1.9166666666666667 1.9166666666666667 0 0 1 1.8591666666666666 2.3958333333333335l-1.4758333333333333 5.75a1.9166666666666667 1.9166666666666667 0 0 1 -1.8687500000000001 1.4375H3.8333333333333335a1.9166666666666667 1.9166666666666667 0 0 1 -1.9166666666666667 -1.9166666666666667V4.791666666666667a1.9166666666666667 1.9166666666666667 0 0 1 1.9166666666666667 -1.9166666666666667h3.7375000000000003a1.9166666666666667 1.9166666666666667 0 0 1 1.6195833333333334 0.8625l0.7762500000000001 1.15a1.9166666666666667 1.9166666666666667 0 0 0 1.6004166666666666 0.8625H17.25a1.9166666666666667 1.9166666666666667 0 0 1 1.9166666666666667 1.9166666666666667v1.9166666666666667" stroke-width="1"></path>
</svg>