<svg xmlns="http://www.w3.org/2000/svg" viewBox="-0.5 -0.5 24 24" fill="none" stroke="#000000" stroke-linecap="round" stroke-linejoin="round" id="Folder-Search--Streamline-Lucide" height="24" width="24">
  <desc>
    Folder Search Streamline Icon: https://streamlinehq.com
  </desc>
  <path d="M13.416666666666668 16.291666666666668a2.875 2.875 0 1 0 5.75 0 2.875 2.875 0 1 0 -5.75 0" stroke-width="1"></path>
  <path d="M10.254166666666666 19.166666666666668H3.8333333333333335a1.9166666666666667 1.9166666666666667 0 0 1 -1.9166666666666667 -1.9166666666666667V4.791666666666667a1.9166666666666667 1.9166666666666667 0 0 1 1.9166666666666667 -1.9166666666666667h3.7375000000000003a1.9166666666666667 1.9166666666666667 0 0 1 1.6195833333333334 0.8625l0.7762500000000001 1.15a1.9166666666666667 1.9166666666666667 0 0 0 1.6004166666666666 0.8625H19.166666666666668a1.9166666666666667 1.9166666666666667 0 0 1 1.9166666666666667 1.9166666666666667v3.9291666666666667" stroke-width="1"></path>
  <path d="m20.125 20.125 -1.4375 -1.4375" stroke-width="1"></path>
</svg>